<svg xmlns="http://www.w3.org/2000/svg" width="72" height="100" viewBox="0 0 72 100"><g><g><path fill="#222939" d="M57.438 36.669c7.744 9.165 8.659 10.324 10.42 13.825 10.13 20.133-2.764 41.629-25.296 41.629a.526.526 0 0 1-.527-.524c0-.29.236-.524.527-.524 21.739 0 34.136-20.668 24.353-40.112-1.706-3.39-2.622-4.551-10.284-13.62a162.252 162.252 0 0 1-3.638-4.444L.64 99.195c-.62.786-.646.767-.057-.042l50.275-69.078c-2.772-3.842-4.445-6.997-5.445-10.378-2.045-6.917-.266-13.325 6.13-19.519a.53.53 0 0 1 .746.01.522.522 0 0 1-.01.74c-6.12 5.927-7.787 11.934-5.854 18.473.936 3.165 2.504 6.156 5.086 9.777l2.224-3.056a1.786 1.786 0 0 1 2.51-.386l.069.052c.796.597.938 1.717.318 2.504l-2.968 3.758a157.758 157.758 0 0 0 3.774 4.619zm-6.07-5.895c-1.532 2.117-2.45 3.947-2.088 4.218.338.254 1.686-.937 3.188-2.766-.383-.496-.75-.98-1.1-1.452zm1.774.602l.083-.109c1.784-2.352 2.91-4.5 2.516-4.795-.378-.283-2.01 1.23-3.712 3.422.353.482.724.975 1.113 1.482z"/></g></g></svg>